<?xml version="1.0" standalone="no"?><!DOCTYPE svg PUBLIC "-//W3C//DTD SVG 1.1//EN" "http://www.w3.org/Graphics/SVG/1.1/DTD/svg11.dtd"><svg t="1690783395929" class="icon" viewBox="0 0 1024 1024" version="1.1" xmlns="http://www.w3.org/2000/svg" p-id="2603" xmlns:xlink="http://www.w3.org/1999/xlink" width="200" height="200"><path d="M932.224 372.352c-65.408-163.584-236.288-273.536-428.8-244.992-171.904 25.472-309.248 164.864-332.416 337.152a396.864 396.864 0 0 0 288.256 437.76c15.872 4.352 28.032-14.336 18.048-27.52-57.088-75.136-84.48-219.52 51.584-143.872 56.448 35.456 125.952 51.84 200.064 38.784 223.616-33.408 242.048-299.136 203.264-397.312zM376.32 423.296a54.003 54.003 0 0 1-76.416 0 54.003 54.003 0 0 1 0-76.416 54.003 54.003 0 0 1 76.416 0 54.003 54.003 0 0 1 0 76.416z m124.288-100.608a63.194 63.194 0 0 1-89.216 0 63.194 63.194 0 0 1 0-89.216 63.194 63.194 0 0 1 89.216 0 63.194 63.194 0 0 1 0 89.216z m83.2 4.608a69.53 69.53 0 0 1 0-98.304 69.53 69.53 0 0 1 98.304 0 69.53 69.53 0 0 1 0 98.304 69.53 69.53 0 0 1-98.304 0z m169.984 377.216c-49.92 0-90.368-40.448-90.368-90.368 0-49.92 40.448-90.368 90.368-90.368s90.368 40.448 90.368 90.368c0 49.92-40.448 90.368-90.368 90.368z m32.512-231.168a79.744 79.744 0 0 1 0-159.488 79.744 79.744 0 0 1 0 159.488z" fill="#1296db" p-id="2604"></path></svg>